<svg width="69" height="61" viewBox="0 0 69 61" fill="none" xmlns="http://www.w3.org/2000/svg">
<path d="M34 1L1 26L18 60H52L68 26L34 1Z" stroke="#04620B" stroke-width="1.5"/>
<path d="M44 34.255C41.1405 35.4112 38.0844 36.0038 35 36C31.817 36 28.78 35.38 26 34.255M35 33H35.01M39 27V25C39 24.4696 38.7893 23.9609 38.4142 23.5858C38.0391 23.2107 37.5304 23 37 23H33C32.4696 23 31.9609 23.2107 31.5858 23.5858C31.2107 23.9609 31 24.4696 31 25V27H39ZM28 41H42C42.5304 41 43.0391 40.7893 43.4142 40.4142C43.7893 40.0391 44 39.5304 44 39V29C44 28.4696 43.7893 27.9609 43.4142 27.5858C43.0391 27.2107 42.5304 27 42 27H28C27.4696 27 26.9609 27.2107 26.5858 27.5858C26.2107 27.9609 26 28.4696 26 29V39C26 39.5304 26.2107 40.0391 26.5858 40.4142C26.9609 40.7893 27.4696 41 28 41Z" stroke="#04620B" stroke-width="1.5" stroke-linecap="round" stroke-linejoin="round"/>
</svg>
