<svg width="69" height="61" viewBox="0 0 69 61" fill="none" xmlns="http://www.w3.org/2000/svg">
<path d="M34 1L1 26L18 60H52L68 26L34 1Z" fill="#04620B" stroke="#04620B" stroke-width="1.5"/>
<path d="M36.8284 28.8284C37.5786 28.0783 38 27.0609 38 26C38 24.9391 37.5786 23.9217 36.8284 23.1716C36.0783 22.4214 35.0609 22 34 22C32.9391 22 31.9217 22.4214 31.1716 23.1716C30.4214 23.9217 30 24.9391 30 26C30 27.0609 30.4214 28.0783 31.1716 28.8284C31.9217 29.5786 32.9391 30 34 30C35.0609 30 36.0783 29.5786 36.8284 28.8284Z" stroke="white" stroke-width="1.5" stroke-linecap="round" stroke-linejoin="round"/>
<path d="M29.0503 35.0503C30.363 33.7375 32.1435 33 34 33C35.8565 33 37.637 33.7375 38.9497 35.0503C40.2625 36.363 41 38.1435 41 40H27C27 38.1435 27.7375 36.363 29.0503 35.0503Z" stroke="white" stroke-width="1.5" stroke-linecap="round" stroke-linejoin="round"/>
</svg>
